<?xml version="1.0" encoding="UTF-8"?>
<!DOCTYPE svg PUBLIC "-//W3C//DTD SVG 1.1//EN" "http://www.w3.org/Graphics/SVG/1.1/DTD/svg11.dtd">
<svg xmlns="http://www.w3.org/2000/svg" version="1.1" width="256px" height="256px" style="shape-rendering:geometricPrecision; text-rendering:geometricPrecision; image-rendering:optimizeQuality; fill-rule:evenodd; clip-rule:evenodd" xmlns:xlink="http://www.w3.org/1999/xlink">
<g><path style="opacity:1" fill="#1a192b" d="M 87.5,96.5 C 83.1667,96.5 78.8333,96.5 74.5,96.5C 50.5918,96.8276 26.7585,96.4942 3,95.5C 2.33333,66.8333 2.33333,38.1667 3,9.5C 27.7621,8.83562 52.5954,8.50229 77.5,8.5C 102.405,8.50229 127.238,8.83562 152,9.5C 152.667,38.1667 152.667,66.8333 152,95.5C 130.575,96.4936 109.075,96.8269 87.5,96.5 Z"/></g>
<g><path style="opacity:1" fill="#dcdca9" d="M 17.5,23.5 C 57.5,23.5 97.5,23.5 137.5,23.5C 137.5,42.8333 137.5,62.1667 137.5,81.5C 97.5,81.5 57.5,81.5 17.5,81.5C 17.5,62.1667 17.5,42.8333 17.5,23.5 Z"/></g>
<g><path style="opacity:1" fill="#b4b4ba" d="M 74.5,96.5 C 78.8333,96.5 83.1667,96.5 87.5,96.5C 88.5678,99.0752 90.2345,101.242 92.5,103C 107.167,112.834 122.834,120.834 139.5,127C 152.429,132.039 163.929,139.205 174,148.5C 176.426,151.691 178.593,155.025 180.5,158.5C 176.167,158.5 171.833,158.5 167.5,158.5C 166.432,155.925 164.765,153.758 162.5,152C 147.833,142.166 132.166,134.166 115.5,128C 102.671,122.813 91.1713,115.646 81,106.5C 78.5738,103.309 76.4072,99.9754 74.5,96.5 Z"/></g>
<g><path style="opacity:1" fill="#1a192b" d="M 167.5,158.5 C 171.833,158.5 176.167,158.5 180.5,158.5C 204.408,158.172 228.241,158.506 252,159.5C 252.667,188.167 252.667,216.833 252,245.5C 227.238,246.164 202.405,246.498 177.5,246.5C 152.595,246.498 127.762,246.164 103,245.5C 102.333,216.833 102.333,188.167 103,159.5C 124.425,158.506 145.925,158.173 167.5,158.5 Z"/></g>
<g><path style="opacity:1" fill="#dcdca9" d="M 117.5,173.5 C 157.5,173.5 197.5,173.5 237.5,173.5C 237.5,192.833 237.5,212.167 237.5,231.5C 197.5,231.5 157.5,231.5 117.5,231.5C 117.5,212.167 117.5,192.833 117.5,173.5 Z"/></g>
</svg>
